# xmcd
#
# Track frame offsets: 
#        150
#        10865
#        23184
#        36540
#        50670
#        61426
#        74908
#        87904
#        101348
#        115330
#        131714
#        149579
#        165325
#        180792
#        195528
#        213797
#        232614
#        244813
#        258938
#        275823
#        292123
#        306892
#        323011
#
# Disc length: 4530 seconds
#
# Revision: 10
# Processed by: cddbd v1.5.2PL0 Copyright (c) Steve Scherf et al.
# Submitted via: ExactAudioCopy v1.3
#
DISCID=5111b017
DTITLE=Ronnie Milsap - 40 # 1 Hits
DYEAR=2000
DGENRE=Country
TTITLE0=Pure Love
TTITLE1=Please Don't Tell Me How The Story Ends
TTITLE2=I'd Be A Legend In My Time
TTITLE3=Too Late To Worry Too Blue To Cry
TTITLE4=Daydreams About Night Things
TTITLE5=Just In Case
TTITLE6=What Goes On When The Sun Goes Down
TTITLE7=I'm A Stand By My Woman Man
TTITLE8=Let My Love Be Your Pillow
TTITLE9=It Was Almost Like A Song
TTITLE10=What A Difference You've Made In My Life
TTITLE11=Only One Love In My Life
TTITLE12=Let's Take The Long Way Around The World
TTITLE13=Back On My Mind Again
TTITLE14=Nobody Likes Sad Songs
TTITLE15=Why Don't You Spend The Night
TTITLE16=My Heart
TTITLE17=Cowboys And Clowns
TTITLE18=Smoky Mountain Rain
TTITLE19=Am I Losing You
TTITLE20=There's No Getting Over Me
TTITLE21=I Wouldn't Have Missed It For The World
TTITLE22=Any Day Now
EXTD=Virgin Records YEAR: 2000
EXTT0=
EXTT1=
EXTT2=
EXTT3=
EXTT4=
EXTT5=
EXTT6=
EXTT7=
EXTT8=
EXTT9=
EXTT10=
EXTT11=
EXTT12=
EXTT13=
EXTT14=
EXTT15=
EXTT16=
EXTT17=
EXTT18=
EXTT19=
EXTT20=
EXTT21=
EXTT22=
PLAYORDER=
